<svg width="304" height="224" viewBox="0 0 304 224" fill="none" xmlns="http://www.w3.org/2000/svg">
<g clip-path="url(#clip0_1_1978)">
<rect width="304" height="224" fill="url(#paint0_radial_1_1978)"/>
<path opacity="0.4" d="M238.821 -7.99978C193.021 -8.06321 148.231 5.46008 110.119 30.859C72.0068 56.258 42.285 92.3911 24.7142 134.687C7.14329 176.982 2.51305 223.539 11.4093 268.467C20.3055 313.394 42.3284 354.674 74.6915 387.082C107.055 419.49 148.303 441.57 193.219 450.528C238.134 459.487 284.697 454.921 327.017 437.409C369.337 419.897 405.511 390.225 430.963 352.148C456.415 314.071 470 269.3 470 223.5C470 162.158 445.654 103.324 402.309 59.9182C358.963 16.5128 300.163 -7.91482 238.821 -7.99978ZM238.821 348.228C214.138 348.291 189.992 341.03 169.438 327.364C148.885 313.697 132.848 294.239 123.359 271.454C113.869 248.669 111.354 223.58 116.13 199.364C120.906 175.148 132.76 152.894 150.191 135.418C167.621 117.943 189.845 106.032 214.049 101.193C238.252 96.3543 263.347 98.8055 286.157 108.236C308.967 117.667 328.465 133.654 342.185 154.172C355.904 174.69 363.228 198.818 363.228 223.5C363.143 256.609 349.931 288.334 326.489 311.716C303.047 335.097 271.289 348.228 238.179 348.228H238.821Z" fill="url(#paint1_linear_1_1978)"/>
<path fill-rule="evenodd" clip-rule="evenodd" d="M165.319 141.947L165.757 141.893L271.495 156.74C272.356 156.846 272.356 158.117 271.495 158.249L198.039 165.553C195.588 165.898 193.085 165.871 190.634 165.474L104.636 150.812C103.827 150.68 103.879 149.489 104.688 149.41L120.967 147.406L125.272 137.605H163.228L165.319 141.947Z" fill="#393939"/>
<path fill-rule="evenodd" clip-rule="evenodd" d="M98.1953 127.259L125.575 140.624L171.677 146.182L205.445 150.998L211.313 121.965L149.461 111.538L103.098 105.742L98.1953 127.259Z" fill="#393939"/>
<path fill-rule="evenodd" clip-rule="evenodd" d="M117.518 116.355C123.077 116.355 127.584 123.868 127.584 133.134C127.584 142.401 123.077 149.914 117.518 149.914C111.96 149.914 107.453 142.401 107.453 133.134C107.453 123.868 111.96 116.355 117.518 116.355Z" fill="#393939"/>
<path fill-rule="evenodd" clip-rule="evenodd" d="M117.52 149.914H110.193L108.055 133.135L117.52 149.914Z" fill="#393939"/>
<path fill-rule="evenodd" clip-rule="evenodd" d="M109.042 116.355C114.601 116.355 119.107 123.868 119.107 133.134C119.107 142.401 114.601 149.914 109.042 149.914C103.483 149.914 98.9766 142.401 98.9766 133.134C98.9766 123.868 103.483 116.355 109.042 116.355Z" fill="#5F5F5F"/>
<path fill-rule="evenodd" clip-rule="evenodd" d="M197.184 121.965H188.005V126.332C184.459 130.169 182.164 136.177 182.164 142.926C182.164 149.675 184.459 155.682 188.005 159.52V163.887H197.184C205.476 163.887 212.204 154.518 212.204 142.926C212.203 131.334 205.476 121.965 197.184 121.965Z" fill="#393939"/>
<path fill-rule="evenodd" clip-rule="evenodd" d="M188.004 121.965C196.299 121.965 203.024 131.349 203.024 142.926C203.024 154.502 196.299 163.887 188.004 163.887C179.709 163.887 172.984 154.502 172.984 142.926C172.984 131.349 179.709 121.965 188.004 121.965Z" fill="#5F5F5F"/>
<path fill-rule="evenodd" clip-rule="evenodd" d="M255.274 116.645C265.557 116.645 273.893 126.029 273.893 137.605C273.893 149.181 265.557 158.566 255.274 158.566C244.992 158.566 236.656 149.181 236.656 137.605C236.656 126.029 244.992 116.645 255.274 116.645Z" fill="#393939"/>
<path fill-rule="evenodd" clip-rule="evenodd" d="M278.666 128.582V145.071C278.666 145.997 278.066 146.791 277.18 147.029L266.984 146.817C260.621 146.685 254.259 147.347 248.053 148.749L229.8 152.904C227.954 152.939 226.058 152.955 224.173 152.955C214.616 152.955 205.382 152.574 204.663 152.507H204.584C203.776 152.399 203.067 152.039 202.514 151.523C202.438 151.454 202.365 151.383 202.295 151.309C201.638 150.589 201.247 149.628 201.247 148.617C201.247 148.299 201.299 147.955 201.377 147.611C201.898 145.573 202.185 143.377 202.185 141.101C202.185 140.331 202.151 139.571 202.086 138.825C201.646 133.598 199.69 128.969 196.806 125.706C196.438 125.29 196.057 124.896 195.661 124.525C193.132 122.165 190.037 120.775 186.696 120.775C178.143 120.775 171.207 129.879 171.207 141.101C171.207 141.556 171.22 142.008 171.244 142.453C171.309 143.742 171.471 144.989 171.703 146.209C171.859 147.056 171.181 147.797 170.347 147.691L125.627 140.651C123.994 140.423 122.539 139.704 121.392 138.647C121.225 138.496 121.063 138.338 120.912 138.171C119.54 136.686 118.716 134.677 118.716 132.5V132.42C118.716 130.996 118.628 129.609 118.458 128.278C117.84 123.44 116.164 119.325 113.882 116.739C113.608 116.427 113.327 116.136 113.034 115.871C111.611 114.574 109.997 113.841 108.286 113.841C105.618 113.841 103.188 115.617 101.345 118.539C99.8896 120.844 98.7996 123.864 98.2468 127.286L98.2262 127.227L96.8648 123.395C96.3694 122.019 96.1347 120.537 96.1868 119.082L96.3224 114.73L96.7605 100.714C96.8387 98.0413 98.664 95.765 101.219 95.1562L172.433 102.17L172.477 102.167L232.381 99.7348C258.822 102.752 265.133 103.149 270.217 109.977C270.635 110.533 271.052 111.142 271.469 111.803C272.512 113.471 273.399 115.006 274.129 116.382C277.154 122.151 277.623 125.433 277.623 125.433C277.949 125.87 278.21 126.365 278.39 126.899C278.567 127.431 278.666 128 278.666 128.582Z" fill="#EDEEEF"/>
<path fill-rule="evenodd" clip-rule="evenodd" d="M182.5 101.746L209.854 113.55L241.171 118.023L271.94 115.111L269.646 111.83C268.238 103.493 223.856 100.053 223.856 100.053L182.5 101.746Z" fill="white"/>
<path fill-rule="evenodd" clip-rule="evenodd" d="M232.334 99.7079L176.27 101.984L172.385 102.143L163.232 101.243L162.894 101.216L106.674 95.6854L101.172 95.1561L109.568 85.0459C109.673 84.9136 109.777 84.7812 109.855 84.6224L110.116 84.1461C110.924 82.664 112.332 81.6585 113.949 81.3672C146.414 75.8623 171.394 73.9835 205.971 80.4409C206.258 80.6261 206.571 80.8378 206.857 81.0231C219.217 89.1481 232.334 99.7079 232.334 99.7079Z" fill="#393939"/>
<path fill-rule="evenodd" clip-rule="evenodd" d="M232.334 99.7082L176.271 101.984L163.468 83.1145C162.868 82.2409 163.494 81.0234 164.563 81.0234H206.884C219.218 89.1484 232.334 99.7082 232.334 99.7082Z" fill="#5F6368"/>
<path fill-rule="evenodd" clip-rule="evenodd" d="M203.365 111.671L207.225 116.753C208.242 118.102 209.806 118.976 211.475 119.108L232.779 120.802C233.796 120.881 234.474 119.743 233.926 118.87L233.405 118.05C231.371 114.794 227.929 112.73 224.148 112.412L203.809 110.798C203.391 110.771 203.105 111.301 203.365 111.671Z" fill="#B6B9BA"/>
<path fill-rule="evenodd" clip-rule="evenodd" d="M274.081 116.381L272.516 117.837C272.151 118.181 271.551 118.022 271.421 117.546L269.674 111.856C269.465 111.194 269.674 110.453 270.195 109.977C270.612 110.532 271.03 111.141 271.447 111.802C272.49 113.444 273.35 114.979 274.081 116.381Z" fill="#B6B9BA"/>
<path fill-rule="evenodd" clip-rule="evenodd" d="M186.647 132.234C190.391 132.234 193.426 137.021 193.426 142.926C193.426 148.832 190.391 153.618 186.647 153.618C182.902 153.618 179.867 148.832 179.867 142.926C179.867 137.021 182.902 132.234 186.647 132.234Z" fill="#DCDFE0"/>
<path fill-rule="evenodd" clip-rule="evenodd" d="M109.046 124.373C111.941 124.373 114.287 128.295 114.287 133.133C114.287 137.971 111.941 141.894 109.046 141.894C106.151 141.894 103.805 137.971 103.805 133.133C103.805 128.295 106.151 124.373 109.046 124.373Z" fill="#DCDFE0"/>
<path fill-rule="evenodd" clip-rule="evenodd" d="M230.117 114.581L269.961 112.834L271.865 119.053C272.204 120.139 271.421 121.277 270.274 121.303L238.149 122.521C237.549 122.547 236.949 122.283 236.532 121.832L230.117 114.581Z" fill="#5F6368"/>
<path fill-rule="evenodd" clip-rule="evenodd" d="M204.639 139.406V152.48H204.561C203.766 152.372 203.067 152.025 202.517 151.522C202.441 151.453 202.368 151.382 202.297 151.308C201.622 150.588 201.223 149.614 201.223 148.59C201.223 148.272 201.275 147.928 201.354 147.584C201.875 145.546 202.162 143.349 202.162 141.073C202.162 140.314 202.131 139.562 202.065 138.824C201.63 133.599 199.682 128.971 196.809 125.704C196.441 125.289 196.06 124.895 195.664 124.524C193.129 122.148 190.026 120.748 186.673 120.748C178.12 120.748 171.184 129.852 171.184 141.073C171.184 141.537 171.197 141.994 171.22 142.447C171.288 143.728 171.447 144.969 171.679 146.181C171.836 147.028 171.158 147.769 170.323 147.663L125.603 140.623C124.286 140.441 123.089 139.938 122.072 139.202C122.07 139.202 122.067 139.197 122.067 139.197C121.913 139.083 121.762 138.964 121.613 138.84C121.538 138.776 121.467 138.713 121.394 138.646C121.228 138.496 121.066 138.337 120.915 138.17C119.527 136.683 118.693 134.663 118.693 132.472V132.393C118.693 132.34 118.69 132.287 118.69 132.234C118.685 130.871 118.599 129.545 118.435 128.269C117.822 123.439 116.153 119.329 113.885 116.738C113.611 116.426 113.329 116.135 113.037 115.87C111.608 114.555 109.984 113.814 108.263 113.814C105.595 113.814 103.162 115.592 101.319 118.517C99.8688 120.814 98.7814 123.82 98.2286 127.226C98.226 127.237 98.226 127.248 98.2234 127.258L96.8414 123.368C96.3459 121.992 96.1112 120.51 96.1634 119.054L96.2964 114.706L96.4685 109.063L96.6067 104.524L96.711 100.687C96.7892 98.0137 98.6145 95.7376 101.17 95.1289L103.778 95.3936L172.357 102.142C172.357 102.142 172.399 102.15 172.48 102.166C174.623 102.616 204.313 109.442 204.636 138.922C204.639 139.083 204.639 139.245 204.639 139.406Z" fill="#D4D6D6"/>
<path fill-rule="evenodd" clip-rule="evenodd" d="M170.349 147.689L125.629 140.649C124.302 140.464 123.095 139.954 122.072 139.202C122.07 139.202 122.067 139.196 122.067 139.196C121.911 139.085 121.759 138.963 121.613 138.839C121.538 138.776 121.467 138.712 121.394 138.646C121.228 138.495 121.066 138.336 120.915 138.169C119.527 136.682 118.693 134.663 118.693 132.471V132.392C118.693 132.339 118.69 132.286 118.69 132.233C118.685 130.87 118.599 129.544 118.435 128.269C117.822 123.439 116.153 119.329 113.885 116.738C113.611 116.425 113.329 116.134 113.037 115.87C111.608 114.554 109.984 113.813 108.263 113.813C105.595 113.813 103.162 115.592 101.319 118.516C99.8643 120.821 98.7746 123.839 98.2234 127.258L96.8414 123.367C96.3459 121.991 96.1112 120.509 96.1634 119.053L96.2964 114.705L96.4685 109.062C109.707 109.308 116.484 107.246 122.289 123.275C123.986 127.963 127.725 131.581 132.433 133.035C142.362 136.102 155.358 139.517 171.246 142.451C171.246 142.451 171.246 142.451 171.246 142.452C171.312 143.741 171.473 144.987 171.705 146.207C171.862 147.054 171.184 147.795 170.349 147.689Z" fill="#77CA1D"/>
<path fill-rule="evenodd" clip-rule="evenodd" d="M277.179 147.003C260.621 151.343 242.89 152.64 229.773 152.879L236.397 142.477C237.701 140.44 239.813 139.116 242.186 138.852L273.268 136.364C274.52 136.258 275.667 137.158 275.85 138.429L277.179 147.003Z" fill="#5F6368"/>
<path fill-rule="evenodd" clip-rule="evenodd" d="M103.78 95.3944C103.78 96.9557 102.763 98.3324 101.303 98.7821L100.886 98.9144C100.051 99.1526 99.4256 99.8936 99.3213 100.767C99.1127 102.408 98.0957 103.837 96.6094 104.552L96.7137 100.714C96.7919 98.0407 98.6172 95.7647 101.173 95.1562L103.78 95.3944Z" fill="#D44C59"/>
<path fill-rule="evenodd" clip-rule="evenodd" d="M163.23 101.242L162.892 101.215L137.363 98.7009L122.656 97.2453L106.672 95.6841L114.156 85.1508C114.781 84.2774 115.746 83.7216 116.815 83.6422L117.493 83.5893L130.74 82.6892L151.914 81.2603C154.234 81.1012 156.373 82.5042 157.181 84.7276L163.23 101.242Z" fill="#5F6368"/>
<path fill-rule="evenodd" clip-rule="evenodd" d="M137.367 98.7022L122.66 97.2466L117.523 83.59L130.77 82.7169L137.367 98.7022Z" fill="#6D7175"/>
<path fill-rule="evenodd" clip-rule="evenodd" d="M122.861 104.816L117.907 104.26C117.307 104.181 116.89 103.652 116.942 103.043L117.02 102.355C117.046 102.01 117.359 101.772 117.698 101.799L123.591 102.461C123.93 102.487 124.165 102.804 124.139 103.149L124.061 103.837C124.008 104.446 123.461 104.869 122.861 104.816Z" fill="#5F5F5F"/>
<path fill-rule="evenodd" clip-rule="evenodd" d="M149.177 107.753L144.77 107.25C144.014 107.171 143.492 106.483 143.57 105.715L143.622 105.186C143.648 104.921 143.883 104.736 144.144 104.762L150.324 105.451C150.584 105.477 150.767 105.715 150.741 105.98L150.689 106.509C150.611 107.303 149.933 107.833 149.177 107.753Z" fill="#5F5F5F"/>
<path fill-rule="evenodd" clip-rule="evenodd" d="M232.335 99.7071L202.244 98.1456C200.053 98.0397 198.098 96.6635 197.211 94.6259L191.266 80.9961H206.885C219.219 89.1473 232.335 99.7071 232.335 99.7071Z" fill="#6D7175"/>
<path fill-rule="evenodd" clip-rule="evenodd" d="M115.541 81.0759L108.318 82.2936C107.327 82.4524 106.936 83.696 107.666 84.4109L110.404 87.1104L115.541 81.0759Z" fill="#393939"/>
<path fill-rule="evenodd" clip-rule="evenodd" d="M174.289 101.242C183.337 97.2723 197.783 99.7072 197.783 99.7072C215.463 98.8338 226.076 98.9661 226.076 98.9661L228.814 99.8395L174.811 102.116L174.289 101.242Z" fill="#393939"/>
<path fill-rule="evenodd" clip-rule="evenodd" d="M86.8145 146.992L65.9695 152.329C65.0233 152.571 65.1111 153.952 66.0802 154.071L164.477 166.37C165.466 166.492 168.157 165.544 169.904 164.872C170.335 164.706 170.26 164.072 169.802 164.011L160.704 162.795L154.649 156.654L136.767 150.224L86.8145 146.992Z" fill="#393939"/>
<path fill-rule="evenodd" clip-rule="evenodd" d="M65.3404 142.447L70.7955 145.281L77.6015 143.12L70.7955 132.91L64.7031 136.604L65.3404 142.447Z" fill="#393939"/>
<path fill-rule="evenodd" clip-rule="evenodd" d="M78.0775 144.675C78.0775 148.14 77.0759 151.111 75.6522 152.361C75.1877 152.769 74.6806 152.993 74.1471 152.993C73.1652 152.993 72.2678 152.23 71.5788 150.967C71.3528 150.554 71.1497 150.089 70.9748 149.577C70.4997 148.203 70.2188 146.507 70.2188 144.675C70.2188 142.16 70.7451 139.907 71.5788 138.382C72.2678 137.12 73.1652 136.357 74.1471 136.357C76.3181 136.357 78.0775 140.081 78.0775 144.675Z" fill="#393939"/>
<path fill-rule="evenodd" clip-rule="evenodd" d="M75.6512 152.358C75.1865 152.766 74.6796 152.99 74.1461 152.99H69.0078L70.9738 149.574L72.862 146.293L73.445 145.279L75.6512 152.358Z" fill="#393939"/>
<path fill-rule="evenodd" clip-rule="evenodd" d="M69.0069 136.357C71.1768 136.357 72.9359 140.081 72.9359 144.675C72.9359 149.269 71.1768 152.993 69.0069 152.993C66.8371 152.993 65.0781 149.269 65.0781 144.675C65.0781 140.081 66.8371 136.357 69.0069 136.357Z" fill="#606060"/>
<path fill-rule="evenodd" clip-rule="evenodd" d="M68.5354 141.258C69.4653 141.258 70.2193 142.855 70.2193 144.825C70.2193 146.795 69.4653 148.391 68.5354 148.391C67.6055 148.391 66.8516 146.795 66.8516 144.825C66.8516 142.855 67.6055 141.258 68.5354 141.258Z" fill="#D4D6D6"/>
<path fill-rule="evenodd" clip-rule="evenodd" d="M171.856 117.413C171.856 121.619 171.739 124.656 171.067 128.551C170.346 132.745 168.979 137.932 166.424 146.647C165.833 148.663 165.179 150.866 164.455 153.29C164.455 153.29 139.48 156.368 130.856 156.368C122.23 156.368 120.249 152.625 120.249 152.625L84.4472 147.971H84.4449L84.4427 147.968L79.5379 147.357L77.2546 146.798C75.3436 146.329 73.8331 144.954 73.2842 143.177L72.845 141.756C72.3341 140.101 69.3294 137.699 68.3415 136.946C68.0231 136.703 67.6332 136.542 67.2231 136.533C66.0714 136.506 65.341 137.519 65.341 138.353V142.446C64.8077 142.157 64.4582 141.645 64.4044 141.07C64.2498 139.395 64.0369 135.859 64.7517 134.059C64.9309 133.606 65.034 133.131 65.0365 132.648L65.09 121.729L71.1533 115.855C71.1533 115.855 66.9296 97.4363 74.1491 94.1012C81.3685 90.766 122.476 87.3632 122.476 87.3632C122.476 87.3632 123.771 86.0305 127.024 85.0877C127.085 85.0697 127.148 85.0519 127.21 85.0338C127.226 85.0293 127.242 85.0248 127.257 85.0203C128.891 84.5693 130.995 84.2198 133.646 84.1724C134.179 84.1634 134.768 84.1677 135.402 84.1857C142.792 84.3844 156.4 86.2696 162.485 87.1941C162.53 87.4963 162.494 87.8142 162.364 88.1187L164.011 92.8609L170.428 111.374L170.431 111.376C170.446 111.399 170.579 111.6 170.756 111.97C170.953 112.38 171.206 113.002 171.423 113.826C171.589 114.482 171.737 115.269 171.806 116.18C171.838 116.568 171.856 116.98 171.856 117.413Z" fill="#D4D6D6"/>
<path fill-rule="evenodd" clip-rule="evenodd" d="M171.856 117.411C171.856 121.617 171.74 124.654 171.068 128.549C170.346 132.743 168.979 137.929 166.425 146.645C165.278 146.87 164.043 146.99 162.719 146.99C143.539 146.99 128.603 146.81 128.811 137.688C129.017 128.567 126.978 102.564 122.477 87.3611L127.025 85.0856L127.133 85.0317L127.258 85.0182L135.403 84.1836C142.793 84.3823 156.401 86.2674 162.486 87.192C162.531 87.4942 162.495 87.8121 162.365 88.1165L164.012 92.8588L170.429 111.372L170.431 111.374C170.447 111.397 170.579 111.598 170.756 111.967C170.953 112.378 171.207 113 171.424 113.823C171.59 114.48 171.738 115.267 171.807 116.178C171.839 116.566 171.856 116.978 171.856 117.411Z" fill="#EDEEEF"/>
<path fill-rule="evenodd" clip-rule="evenodd" d="M170.226 117.414C170.226 121.619 170.113 124.657 169.465 128.551C169.203 128.731 168.933 128.831 168.656 128.837C164.581 128.939 144.279 128.061 135.374 127.662C133.024 127.556 131.133 125.617 130.994 123.17C130.573 115.757 129.214 100.129 124.938 87.2776L127.129 85.0341C128.712 84.5763 130.758 84.22 133.341 84.1727C139.864 84.0531 154.802 86.1909 161.18 87.1944C161.181 87.1973 161.181 87.2004 161.182 87.2034C161.345 88.3924 161.552 89.5752 161.933 90.7128L162.653 92.8612L168.848 111.375L168.85 111.377C168.865 111.399 168.993 111.6 169.164 111.97C169.354 112.38 169.599 113.003 169.809 113.826C169.969 114.482 170.111 115.269 170.178 116.18C170.209 116.568 170.226 116.981 170.226 117.414Z" fill="white"/>
<path fill-rule="evenodd" clip-rule="evenodd" d="M148.888 126.123C157.989 128.055 167.749 126.123 167.749 126.123L167.09 131.188C152.581 132 146.25 131.204 146.25 131.204L148.888 126.123Z" fill="#5F6368"/>
<path fill-rule="evenodd" clip-rule="evenodd" d="M162.61 87.4423C128.08 84.161 122.478 85.3023 122.478 92.0738L78.7394 121.823C78.7394 121.823 70.4319 121.508 65.0938 121.729L65.1227 116.078L67.1489 100.158L67.2912 99.0465C68.3358 92.2093 72.3475 87.5616 81.8327 85.2008C81.8374 85.2008 81.8423 85.2008 81.847 85.1985C81.8519 85.1985 81.8542 85.1961 81.8591 85.1961C85.9672 84.3732 119.396 83.3269 129.771 82.5059C142.226 82.5059 154.357 83.6854 161.136 85.6879C162.223 86.0081 163.029 86.4501 162.61 87.4423Z" fill="#393939"/>
<path fill-rule="evenodd" clip-rule="evenodd" d="M126.338 126.854L101.117 127.373L101.294 146.994L91.5317 145.905C89.0961 145.305 89.4725 143.314 89.3134 140.964L88.9706 128.943C88.9616 128.832 88.9527 128.722 88.9392 128.614C88.565 125.249 85.8068 122.651 82.4592 122.322L78.7397 121.826C78.7397 121.826 78.612 119.864 78.5515 116.941C78.5291 115.988 78.5156 114.932 78.5156 113.809V104.471C78.5156 98.7732 82.3472 94.2291 87.8368 92.8378C92.5579 91.6406 96.0847 91.8523 96.0847 91.8523L96.087 91.8841L122.48 92.0758L125.377 116.064L125.482 116.941L126.013 121.327C126.235 123.161 126.347 125.008 126.343 126.854H126.338Z" fill="#5F6368"/>
<path fill-rule="evenodd" clip-rule="evenodd" d="M126.334 126.852L101.113 127.371L101.124 128.612L101.29 146.992L91.5271 145.903C89.0915 145.303 89.4679 143.312 89.3088 140.962L88.966 128.941C88.957 128.83 88.9481 128.72 88.9346 128.612C88.5604 125.247 85.8022 122.649 82.4546 122.32L78.7351 121.824C78.7351 121.824 78.6074 119.862 78.5469 116.939H125.478L126.009 121.325C126.231 123.159 126.343 125.006 126.338 126.852H126.334Z" fill="#52565B"/>
<path fill-rule="evenodd" clip-rule="evenodd" d="M170.229 155.033C170.229 159.128 168.555 162.638 166.175 164.115C165.399 164.597 164.551 164.863 163.66 164.863C162.018 164.863 160.519 163.961 159.367 162.468C158.989 161.981 158.65 161.43 158.357 160.825C157.563 159.202 157.094 157.198 157.094 155.033C157.094 152.061 157.974 149.4 159.367 147.597C160.519 146.106 162.018 145.205 163.66 145.205C167.288 145.205 170.229 149.605 170.229 155.033Z" fill="#393939"/>
<path fill-rule="evenodd" clip-rule="evenodd" d="M166.176 164.117C165.401 164.597 164.554 164.863 163.662 164.863H158.679C157.667 164.863 156.71 164.519 155.852 163.906L158.36 160.826L161.516 156.949L162.49 155.75L164.354 159.979L166.176 164.117Z" fill="#393939"/>
<path fill-rule="evenodd" clip-rule="evenodd" d="M151.303 154.243H153.029L156.808 146.854H154.056L151.631 148.209L150.906 150.999L151.303 154.243Z" fill="#393939"/>
<path fill-rule="evenodd" clip-rule="evenodd" d="M165.244 155.032C165.244 156.836 164.92 158.525 164.352 159.978C163.628 161.835 162.511 163.305 161.168 164.129C160.399 164.601 159.558 164.862 158.677 164.862C157.665 164.862 156.707 164.518 155.849 163.905C153.637 162.325 152.109 158.944 152.109 155.032C152.109 149.604 155.051 145.205 158.677 145.205C159.558 145.205 160.399 145.466 161.168 145.938C163.56 147.403 165.244 150.923 165.244 155.032Z" fill="#606060"/>
<path fill-rule="evenodd" clip-rule="evenodd" d="M157.885 151C159.439 151 160.699 152.887 160.699 155.215C160.699 157.542 159.439 159.429 157.885 159.429C156.33 159.429 155.07 157.542 155.07 155.215C155.07 152.887 156.33 151 157.885 151Z" fill="#D4D6D6"/>
<path fill-rule="evenodd" clip-rule="evenodd" d="M151.3 154.242C151.437 150.076 151.964 148.982 156.231 148.719C158.079 148.604 159.937 148.694 161.77 148.964C170.443 150.244 171.898 148.168 171.898 148.168C170.886 140.595 164.295 139.018 157.46 139.018C150.625 139.018 150.625 149.035 150.625 151.639C150.625 154.242 151.3 154.242 151.3 154.242Z" fill="#77CA1D"/>
<path fill-rule="evenodd" clip-rule="evenodd" d="M136.702 120.796L146.527 122.432C147.302 122.56 147.971 123.01 148.349 123.655L150.835 127.89C151.813 129.557 150.454 131.581 148.423 131.483L136.741 130.914C135.47 130.852 134.435 129.939 134.294 128.757L133.665 123.455C133.473 121.843 134.994 120.512 136.702 120.796Z" fill="#B6B9BA"/>
<path fill-rule="evenodd" clip-rule="evenodd" d="M172.307 121.062L167.732 122.277C167.371 122.373 167.023 122.792 166.785 123.417L165.22 127.527C164.603 129.145 164.996 131.216 165.917 131.203L171.21 131.128C171.786 131.12 172.347 130.255 172.536 129.085L173.384 123.835C173.642 122.239 173.103 120.851 172.307 121.062Z" fill="#B6B9BA"/>
<path fill-rule="evenodd" clip-rule="evenodd" d="M126.337 126.85C126.558 137.962 122.09 150.547 122.09 150.547L101.711 147.142V146.561C101.711 138.343 118.322 130.227 126.337 126.85Z" fill="#A0A4A5"/>
<path fill-rule="evenodd" clip-rule="evenodd" d="M171.426 113.825L156.487 114.177L147.224 114.396L147.05 114.401C145.144 114.446 143.236 114.403 141.335 114.27C140.156 114.191 138.976 114.074 137.804 113.925L136.318 113.735C134.294 113.839 132.501 112.522 132.135 110.657L128.84 93.9095C128.654 92.9622 129.445 92.0942 130.475 92.1188H130.48C131.3 92.0131 132.205 91.9226 133.174 91.8482C136.05 91.6205 139.504 91.5147 143.038 91.4784C153.03 91.3792 163.663 91.8572 163.663 91.8572L164.013 92.8607L170.432 111.374L170.435 111.377C170.449 111.399 170.582 111.6 170.758 111.97C170.956 112.38 171.209 113.003 171.426 113.825Z" fill="#5F6368"/>
<path fill-rule="evenodd" clip-rule="evenodd" d="M84.4414 147.969L79.5372 147.358L77.2551 146.799C75.3422 146.329 73.832 144.954 73.2846 143.177L72.8454 141.756C72.3341 140.101 69.3282 137.7 68.3417 136.946C68.0233 136.703 67.6325 136.543 67.2222 136.534C66.0719 136.507 65.3408 137.519 65.3408 138.354V142.447C64.8077 142.158 64.4579 141.646 64.4048 141.071C64.2504 139.395 64.0358 135.86 64.7521 134.06C64.9307 133.607 65.0345 133.131 65.0369 132.649C71.9843 126.601 76.4254 133.659 77.6026 139.892C78.7579 146.03 84.2702 147.913 84.4414 147.969Z" fill="#77CA1D"/>
<path fill-rule="evenodd" clip-rule="evenodd" d="M156.484 114.177L147.221 114.396L133.172 91.8479C136.047 91.6203 139.502 91.5144 143.036 91.4783L156.484 114.177Z" fill="#6D7175"/>
<path fill-rule="evenodd" clip-rule="evenodd" d="M105.477 113.572H91.9864C89.4416 113.572 87.3594 111.477 87.3594 108.916V106.821C87.3594 104.259 89.4416 102.164 91.9864 102.164H105.477C108.022 102.164 110.104 104.259 110.104 106.821V108.916C110.104 111.477 108.022 113.572 105.477 113.572Z" fill="#52565B"/>
<path fill-rule="evenodd" clip-rule="evenodd" d="M101.023 127.471H103.796V89.2695H101.023V127.471Z" fill="#393939"/>
<path fill-rule="evenodd" clip-rule="evenodd" d="M107.492 126.129V141.092C107.492 143.137 109.007 144.861 111.024 145.11L123.307 146.631C127.243 134.643 126.334 126.851 126.334 126.851L125.881 120.268L112.544 120.828C109.721 120.947 107.492 123.285 107.492 126.129Z" fill="#393939"/>
<path fill-rule="evenodd" clip-rule="evenodd" d="M101.293 146.992L91.53 145.903C89.0943 145.303 89.4708 143.312 89.3117 140.962L88.9689 128.941C88.9599 128.83 88.9509 128.72 88.9375 128.611H101.127L101.293 146.992Z" fill="#393939"/>
</g>
<defs>
<radialGradient id="paint0_radial_1_1978" cx="0" cy="0" r="1" gradientUnits="userSpaceOnUse" gradientTransform="translate(152 112) rotate(-90) scale(112 152)">
<stop stop-color="white"/>
<stop offset="1" stop-color="#F0FAE6"/>
</radialGradient>
<linearGradient id="paint1_linear_1_1978" x1="238.5" y1="-8" x2="238.5" y2="455" gradientUnits="userSpaceOnUse">
<stop stop-color="#D7E0CF"/>
<stop offset="1" stop-color="#D7E0CF" stop-opacity="0.5"/>
</linearGradient>
<clipPath id="clip0_1_1978">
<rect width="304" height="224" fill="white"/>
</clipPath>
</defs>
</svg>
