<svg width="304" height="224" viewBox="0 0 304 224" fill="none" xmlns="http://www.w3.org/2000/svg">
<g clip-path="url(#clip0_1_2048)">
<rect width="304" height="224" fill="url(#paint0_radial_1_2048)"/>
<path opacity="0.4" d="M85.1041 136.96L85.4473 -217H-23V245H186.001L244 136.96H85.1041Z" fill="url(#paint1_linear_1_2048)"/>
<path d="M103.791 162.207C103.521 162.272 103.33 162.518 103.33 162.801C103.33 163.084 103.521 163.33 103.791 163.395L162.959 170.425C165.156 170.73 167.384 170.73 169.582 170.425L234.839 166.605C235.186 166.605 235.467 166.318 235.467 165.963C235.467 165.609 235.186 165.321 234.839 165.321L165.941 153.443L103.791 162.207Z" fill="#393939"/>
<path d="M100.966 149.43L115.028 153.283L156.304 158.869L175.609 159.639L187.411 134.952L135.305 130.779L103.194 128.917L99.9613 140.249L100.966 149.43Z" fill="#393939"/>
<path d="M114.086 163.299C117.484 163.299 120.239 157.708 120.239 150.811C120.239 143.914 117.484 138.323 114.086 138.323C110.689 138.323 107.934 143.914 107.934 150.811C107.934 157.708 110.689 163.299 114.086 163.299Z" fill="#393939"/>
<path d="M164.465 155.401C164.465 147.023 168.201 140.217 172.846 140.217C177.492 140.217 181.196 147.023 181.196 155.401" fill="#393939"/>
<path d="M167.259 170.554C171.888 170.554 175.64 163.77 175.64 155.401C175.64 147.033 171.888 140.249 167.259 140.249C162.63 140.249 158.878 147.033 158.878 155.401C158.878 163.77 162.63 170.554 167.259 170.554Z" fill="#5F5F5F"/>
<path d="M167.259 162.239C169.339 162.239 171.026 159.178 171.026 155.402C171.026 151.625 169.339 148.564 167.259 148.564C165.179 148.564 163.492 151.625 163.492 155.402C163.492 159.178 165.179 162.239 167.259 162.239Z" fill="#DCDFE0"/>
<path d="M223.759 166.669C229.983 166.669 235.028 159.886 235.028 151.517C235.028 143.149 229.983 136.365 223.759 136.365C217.536 136.365 212.49 143.149 212.49 151.517C212.49 159.886 217.536 166.669 223.759 166.669Z" fill="#393939"/>
<path d="M238.324 138.58V151.967C238.324 154.706 236.454 157.074 233.835 157.649C212.428 162.143 177.994 161.051 177.994 161.051H177.743H175.985C175.056 160.966 174.361 160.142 174.416 159.19C174.416 158.066 174.416 156.91 174.416 155.723C174.353 154.111 174.206 152.503 173.976 150.907C172.721 142.496 168.954 136.365 164.56 136.525C160.165 136.686 156.618 143.524 156.053 152.576V153.572C156.006 154.513 156.006 155.456 156.053 156.397C156.069 157.058 155.799 157.693 155.315 158.133C154.831 158.572 154.183 158.771 153.542 158.676L118.073 153.925H117.414C116.062 153.702 115.073 152.5 115.091 151.1V149.174C115.091 148.339 115.091 147.536 114.934 146.734C114.243 139.511 111.167 134.086 107.683 134.182C105.172 134.182 103.037 137.167 101.907 141.469C101.258 144.08 100.962 146.77 101.029 149.463L100.589 148.853C99.9257 147.917 99.5538 146.798 99.5218 145.642L99.2393 139.832L99.051 136.461C98.9861 135.255 99.0812 134.046 99.3335 132.866C99.3884 132.541 99.4617 132.219 99.5532 131.903L99.8357 130.843L100.307 128.949L100.746 127.055L101.091 125.546C101.305 124.447 101.767 123.413 102.441 122.529C103.135 121.682 104.003 121.003 104.984 120.538L110.288 118.163L157.623 117.585L211.612 121.405C224.167 125.033 224.732 124.423 230.1 127.569C231.635 128.428 233.041 129.509 234.274 130.779C235.447 132.003 236.403 133.426 237.099 134.984C237.488 135.434 237.806 135.943 238.041 136.493C238.282 137.16 238.378 137.872 238.324 138.58Z" fill="#D4D6D6"/>
<path d="M119.862 125.257L115.718 124.904C115.496 124.888 115.289 124.78 115.147 124.604C115.005 124.428 114.939 124.2 114.965 123.973V123.363C114.973 123.238 115.031 123.121 115.127 123.042C115.222 122.963 115.346 122.928 115.467 122.946L120.333 123.331C120.458 123.347 120.572 123.414 120.649 123.517C120.725 123.619 120.759 123.749 120.741 123.877V124.487C120.744 124.716 120.647 124.934 120.478 125.083C120.308 125.232 120.082 125.296 119.862 125.257Z" fill="#5F5F5F"/>
<path d="M137.785 127.151L134.081 126.798C133.54 126.75 133.122 126.294 133.108 125.739V125.225C133.14 125.025 133.319 124.885 133.516 124.904L138.601 125.354C138.717 125.305 138.849 125.325 138.947 125.405C139.045 125.485 139.092 125.613 139.072 125.739V126.253C139.036 126.556 138.874 126.828 138.628 127C138.381 127.173 138.074 127.228 137.785 127.151Z" fill="#5F5F5F"/>
<path d="M238.324 138.58V151.967C238.309 154.711 236.428 157.076 233.804 157.649C212.396 162.143 177.963 161.052 177.963 161.052H177.712V149.88C177.739 142.449 175.167 135.253 170.461 129.591L164.842 122.946L156.022 122.208L203.89 114.407C208.127 118.099 211.266 121.309 211.58 121.502C224.136 125.129 224.669 124.519 230.037 127.665C231.579 128.514 232.986 129.596 234.212 130.875C235.385 132.099 236.341 133.522 237.037 135.081C237.426 135.53 237.743 136.039 237.978 136.59C238.266 137.209 238.385 137.897 238.324 138.58Z" fill="#DCDFE0"/>
<path d="M166.066 120.795L179.25 134.278L196.231 137.777C196.231 137.777 232.579 137.777 237.037 135.145C230.759 124.391 206.746 121.437 206.746 121.437L166.066 120.795Z" fill="white"/>
<path d="M211.612 121.502L164.779 122.914H164.591L159.067 122.529L120.239 119.094L110.225 118.227C110.225 118.227 119.36 105.386 128.462 102.786C137.565 100.186 162.205 100.378 162.205 100.378C162.205 100.378 183.675 100.603 191.052 104.616L191.931 105.129C198.923 110.02 205.506 115.496 211.612 121.502Z" fill="#393939"/>
<path d="M109.158 156.782C110.788 156.782 112.109 154.109 112.109 150.811C112.109 147.513 110.788 144.84 109.158 144.84C107.529 144.84 106.208 147.513 106.208 150.811C106.208 154.109 107.529 156.782 109.158 156.782Z" fill="#DCDFE0"/>
<path d="M211.612 121.501H209.665L164.779 122.85L164.183 121.566L157.905 107.73C157.638 107.15 157.661 106.474 157.966 105.914C158.271 105.354 158.821 104.978 159.443 104.905C165.068 104.229 170.731 103.94 176.393 104.038C182.326 104.038 187.693 104.551 192.088 105.033C199.075 109.942 205.658 115.428 211.769 121.437L211.612 121.501Z" fill="#5F6368"/>
<path d="M159.067 122.529L140.422 120.859L125.794 119.607L116.66 118.805V118.002C116.664 116.752 117.084 115.54 117.853 114.567C118.544 113.636 119.299 112.756 120.113 111.935C122.431 109.662 125.205 107.931 128.243 106.863C131.878 105.59 135.701 104.971 139.543 105.033C151.878 104.969 155.363 107.601 159.067 122.529Z" fill="#5F6368"/>
<path d="M177.712 131.549V132.159C177.789 133.547 178.513 134.813 179.658 135.562C180.714 136.172 181.712 136.881 182.64 137.681L183.016 138.58C184.178 140.29 186.038 141.365 188.07 141.501L195.854 142.015C197.05 142.097 198.214 141.597 198.993 140.667L200.343 139.094C200.537 138.906 200.647 138.644 200.647 138.371C200.647 138.098 200.537 137.837 200.343 137.649C191.177 129.88 177.712 131.549 177.712 131.549Z" fill="#A9AAAA"/>
<path d="M238.323 138.259V138.58L236.974 138.805L234.777 136.75C233.977 135.977 233.632 134.832 233.866 133.732C234.076 132.773 234.191 131.794 234.212 130.811C235.403 132.031 236.361 133.468 237.037 135.049C237.442 135.473 237.762 135.975 237.978 136.525C238.219 137.069 238.337 137.662 238.323 138.259Z" fill="#A9AAAA"/>
<path d="M201.536 144.358L203.45 147.248C204.829 149.391 207.224 150.615 209.728 150.458L226.27 149.527C229.109 149.387 231.587 147.512 232.548 144.776L233.709 141.565C234.098 140.464 233.869 139.234 233.113 138.355L232.548 137.713C231.926 137.007 231.029 136.619 230.1 136.654L204.989 138.066C204.112 138.122 203.281 138.485 202.634 139.094L202.258 139.479C200.896 140.713 200.592 142.767 201.536 144.358Z" fill="#393939"/>
<path d="M103.602 124.904L101.217 129.88C100.942 130.436 100.382 130.785 99.7729 130.779L100.275 128.949L101.06 125.546C101.28 124.443 101.753 123.408 102.441 122.529C102.956 122.599 103.404 122.926 103.637 123.402C103.87 123.878 103.857 124.44 103.602 124.904Z" fill="#D44C59"/>
<path d="M209.665 121.566L164.779 122.914L164.183 121.63C167.667 120.924 183.236 117.97 190.393 120.506C190.949 120.699 191.532 120.796 192.119 120.795L206.84 120.635C207.85 120.664 208.83 120.987 209.665 121.566Z" fill="#393939"/>
<path d="M140.39 120.795L125.763 119.543L120.239 111.903C122.544 109.629 125.308 107.898 128.337 106.831L140.39 120.795Z" fill="#6D7175"/>
<path d="M211.58 121.501L186.909 118.291C184.93 118.046 183.182 116.855 182.2 115.081L176.299 104.166C182.2 104.166 187.599 104.712 191.994 105.194C198.957 110.06 205.508 115.515 211.58 121.501Z" fill="#6D7175"/>
<path d="M182.137 151.678C192.653 151.678 224.544 157.231 238.324 147.697C238.324 149.976 238.324 151.934 238.324 151.934C238.324 151.934 226.961 159.446 184.46 155.755C183.572 155.667 182.838 155.007 182.64 154.117C182.64 154.117 181.729 152.127 182.137 151.678Z" fill="#5F5F5F"/>
<path d="M115.028 146.734C114.243 139.511 111.167 134.053 107.683 134.15C105.172 134.15 103.037 137.167 101.907 141.469C101.243 144.077 100.947 146.769 101.028 149.463L100.589 148.821C99.9031 147.897 99.5286 146.77 99.5218 145.61L99.2393 139.768L99.051 136.557C99.0085 135.343 99.0926 134.127 99.3021 132.93C99.3021 132.93 108.719 127.922 115.562 132.93C118.7 135.177 116.346 146.605 125.669 148.628C134.991 150.65 156.242 153.443 156.242 153.443C156.194 154.395 156.194 155.349 156.242 156.3C156.257 156.962 155.987 157.597 155.503 158.036C155.02 158.476 154.371 158.674 153.73 158.58L118.261 153.828H117.602C116.238 153.604 115.246 152.384 115.279 150.971V149.174C115.153 148.211 115.091 147.536 115.028 146.734Z" fill="#B6B9BA"/>
<path d="M95.9944 164.926L133.214 76.645H137.628H141.159C145.286 76.9419 148.479 80.3821 148.469 84.5197C148.469 84.8728 148.469 85.226 148.469 85.5791V156.204C148.684 159.454 146.911 162.51 143.984 163.938C142.836 164.371 141.655 164.714 140.453 164.962C133.39 164.962 136.922 164.75 131.448 164.962H105.14C102.097 165.23 99.0355 165.219 95.9944 164.926Z" fill="#393939"/>
<path d="M133.214 76.8216L95.9944 165.103L93.805 164.785C93.1687 164.558 92.5542 164.275 91.9687 163.938C88.8701 162.72 86.8849 159.671 87.025 156.345C87.025 154.438 87.025 152.496 87.025 150.589V85.7557C86.8168 82.939 88.0373 80.2062 90.2737 78.4813C91.7748 77.3467 93.6194 76.761 95.5 76.8216H133.214Z" fill="#393939"/>
<path d="M90.3796 163.938C90.3796 163.938 91.4743 169.623 95.0409 169.623C98.6075 169.623 99.7375 166.833 99.914 163.938C100.091 161.042 90.3796 163.938 90.3796 163.938Z" fill="#393939"/>
<path d="M119.689 163.937C119.689 163.937 120.784 169.623 124.315 169.623C127.846 169.623 129.047 166.904 129.188 163.867C129.329 160.83 119.689 163.937 119.689 163.937Z" fill="#393939"/>
<path d="M124.421 85.9322C124.421 85.5084 124.421 85.1906 124.421 84.8728C124.421 80.6706 124.421 76.4684 124.421 72.2663C124.48 70.3756 123.755 68.5445 122.418 67.2069C121.08 65.8693 119.249 65.1443 117.358 65.2038C113.156 65.0625 108.742 65.0625 104.399 65.0625C102.629 65.0055 100.911 65.6614 99.6294 66.8831C98.348 68.1047 97.6109 69.7898 97.5834 71.56C97.5834 75.8681 97.5834 80.1763 97.5834 84.5197V85.9322H101.115V84.7669C101.115 80.7413 101.115 76.7156 101.115 72.69C101.044 69.9356 102.245 68.5938 104.999 68.5938H117.146C118.101 68.5306 119.036 68.8823 119.713 69.5587C120.389 70.2352 120.741 71.1705 120.678 72.125C120.678 76.4331 120.678 80.7413 120.678 85.0494C120.678 85.0494 120.678 85.4378 120.678 85.7203L124.421 85.9322Z" fill="#393939"/>
<path d="M139.429 85.1553V155.78C139.705 159.128 137.856 162.29 134.803 163.69C133.657 164.14 132.476 164.495 131.272 164.75C124.209 164.75 127.74 164.538 122.267 164.75H95.9944C92.9388 164.994 89.8687 164.994 86.8131 164.75L124.068 76.4684H128.447H131.978C136.02 76.7221 139.203 80.0126 139.323 84.0606C139.393 84.4213 139.429 84.7879 139.429 85.1553Z" fill="#6EBC08"/>
<path d="M124.068 76.3625L86.8131 164.644L84.6237 164.291C83.96 164.18 83.3093 164.003 82.6815 163.761C79.5417 162.471 77.589 159.306 77.8437 155.922C77.8437 153.979 77.8437 152.072 77.8437 150.13V85.3319C77.6355 82.5152 78.856 79.7824 81.0925 78.0575C82.6064 76.8921 84.4801 76.2926 86.3893 76.3625H124.068Z" fill="#77CA1D"/>
<path d="M77.8438 131.344H139.429V155.851C139.429 160.746 135.46 164.714 130.565 164.714H86.7072C81.812 164.714 77.8438 160.746 77.8438 155.851V131.344Z" fill="#6EBC08"/>
<rect x="77.8438" y="127.036" width="61.585" height="10.735" fill="white"/>
<rect x="98.5369" y="88.7925" width="19.2806" height="8.79281" rx="0.49" fill="white"/>
<path d="M139.393 126.965L148.575 132.298V142.256L139.393 137.771V126.965Z" fill="#5F6368"/>
</g>
<defs>
<radialGradient id="paint0_radial_1_2048" cx="0" cy="0" r="1" gradientUnits="userSpaceOnUse" gradientTransform="translate(152 112) rotate(-90) scale(112 152)">
<stop stop-color="white"/>
<stop offset="1" stop-color="#F0FAE6"/>
</radialGradient>
<linearGradient id="paint1_linear_1_2048" x1="110.5" y1="-217" x2="110.5" y2="245" gradientUnits="userSpaceOnUse">
<stop stop-color="#D7E0CF"/>
<stop offset="1" stop-color="#D7E0CF" stop-opacity="0.5"/>
</linearGradient>
<clipPath id="clip0_1_2048">
<rect width="304" height="224" fill="white"/>
</clipPath>
</defs>
</svg>
